In the late 1970s, when a mentally handicapped teenager is abandoned, a gay couple takes him in and becomes the family he's never had. But once the unconventional living arrangement is discovered by authorities, the men must fight a biased legal system to adopt the child they have come to love as their own.
 
http://www.imdb.com/title/tt2066176/

General
Unique ID : 232423711002044686028467631593432700059 (0xAEDB2DB0E4F7337CA7739344FFFE549B)
Complete name : Any.Day.Now.2012.720p.BluRay.DTS.x264-EbP.mkv
Format : Matroska
Format version : Version 2
File size : 5.85 GiB
Duration : 1h 39mn
Overall bit rate : 8 434 Kbps
Encoded date : UTC 2013-04-24 06:09:12
Writing application : mkvmerge v5.3.0 ('I could have danced') built on Feb 9 2012 10:38:07
Writing library : libebml v1.2.3 + libmatroska v1.3.0

Video
ID : 1
Format : AVC
Format/Info : Advanced Video Codec
Format profile : High@L4.1
Format settings, CABAC : Yes
Format settings, ReFrames : 12 frames
Codec ID : V_MPEG4/ISO/AVC
Duration : 1h 39mn
Bit rate : 6 757 Kbps
Width : 1 280 pixels
Height : 536 pixels
Display aspect ratio : 2.40:1
Frame rate mode : Constant
Frame rate : 23.976 fps
Color space : YUV
Chroma subsampling : 4:2:0
Bit depth : 8 bits
Scan type : Progressive
Bits/(Pixel*Frame) : 0.411
Stream size : 4.68 GiB (80%)
Title : Any Day Now 2012
Language : English
Default : Yes
Forced : No

Audio
ID : 2
Format : DTS
Format/Info : Digital Theater Systems
Mode : 16
Format settings, Endianness : Big
Codec ID : A_DTS
Duration : 1h 39mn
Bit rate mode : Constant
Bit rate : 1 509 Kbps
Channel(s) : 6 channels
Channel positions : Front: L C R, Side: L R, LFE
Sampling rate : 48.0 KHz
Bit depth : 24 bits
Compression mode : Lossy
Stream size : 1.05 GiB (18%)
Language : English
Default : Yes
Forced : No

Text
ID : 3
Format : PGS
Muxing mode : zlib
Codec ID : S_HDMV/PGS
Codec ID/Info : The same subtitle format used on BDs/HD-DVDs
Language : English
Default : Yes
Forced : No

Menu
00:00:00.000 : en:00:00:00.000
00:03:53.358 : en:00:03:53.358
00:09:40.497 : en:00:09:40.497
00:18:00.162 : en:00:18:00.162
00:24:58.372 : en:00:24:58.372
00:30:21.945 : en:00:30:21.945
00:34:22.018 : en:00:34:22.018
00:39:41.254 : en:00:39:41.254
00:45:31.395 : en:00:45:31.395
00:52:09.668 : en:00:52:09.668
00:59:33.111 : en:00:59:33.111
01:04:33.870 : en:01:04:33.870
01:12:01.859 : en:01:12:01.859
01:21:03.358 : en:01:21:03.358
01:24:17.261 : en:01:24:17.261
01:28:24.090 : en:01:28:24.090
01:31:53.341 : en:01:31:53.341